<mxfile host="app.diagrams.net" modified="2024-01-13T04:59:20.529Z" agent="Mozilla/5.0 (Windows NT 10.0; Win64; x64) AppleWebKit/537.36 (KHTML, like Gecko) Chrome/120.0.0.0 Safari/537.36" etag="y8wdZfPz29SsqZoDblRv" version="22.1.18" type="device">
  <diagram id="C5RBs43oDa-KdzZeNtuy" name="Page-1">
    <mxGraphModel dx="1432" dy="606" grid="1" gridSize="10" guides="1" tooltips="1" connect="1" arrows="1" fold="1" page="1" pageScale="1" pageWidth="827" pageHeight="1169" math="0" shadow="0">
      <root>
        <mxCell id="WIyWlLk6GJQsqaUBKTNV-0" />
        <mxCell id="WIyWlLk6GJQsqaUBKTNV-1" parent="WIyWlLk6GJQsqaUBKTNV-0" />
        <mxCell id="Va8fQCkZwbm-2GWn9xar-2" style="edgeStyle=orthogonalEdgeStyle;rounded=0;orthogonalLoop=1;jettySize=auto;html=1;exitX=1;exitY=0.5;exitDx=0;exitDy=0;" edge="1" parent="WIyWlLk6GJQsqaUBKTNV-1" source="WIyWlLk6GJQsqaUBKTNV-3">
          <mxGeometry relative="1" as="geometry">
            <mxPoint x="590" y="100" as="targetPoint" />
          </mxGeometry>
        </mxCell>
        <mxCell id="Va8fQCkZwbm-2GWn9xar-15" value="" style="edgeStyle=orthogonalEdgeStyle;rounded=0;orthogonalLoop=1;jettySize=auto;html=1;" edge="1" parent="WIyWlLk6GJQsqaUBKTNV-1" source="WIyWlLk6GJQsqaUBKTNV-3" target="Va8fQCkZwbm-2GWn9xar-14">
          <mxGeometry relative="1" as="geometry" />
        </mxCell>
        <mxCell id="WIyWlLk6GJQsqaUBKTNV-3" value="Employer" style="rounded=1;whiteSpace=wrap;html=1;fontSize=12;glass=0;strokeWidth=1;shadow=0;" parent="WIyWlLk6GJQsqaUBKTNV-1" vertex="1">
          <mxGeometry x="80" y="80" width="120" height="40" as="geometry" />
        </mxCell>
        <mxCell id="Va8fQCkZwbm-2GWn9xar-6" style="edgeStyle=orthogonalEdgeStyle;rounded=0;orthogonalLoop=1;jettySize=auto;html=1;exitX=1;exitY=0.5;exitDx=0;exitDy=0;entryX=0;entryY=0.5;entryDx=0;entryDy=0;" edge="1" parent="WIyWlLk6GJQsqaUBKTNV-1" target="Va8fQCkZwbm-2GWn9xar-5">
          <mxGeometry relative="1" as="geometry">
            <mxPoint x="460" y="100" as="sourcePoint" />
          </mxGeometry>
        </mxCell>
        <mxCell id="Va8fQCkZwbm-2GWn9xar-3" value="&lt;font style=&quot;font-size: 14px;&quot;&gt;Location&lt;/font&gt;" style="text;html=1;strokeColor=none;fillColor=none;align=center;verticalAlign=middle;whiteSpace=wrap;rounded=0;" vertex="1" parent="WIyWlLk6GJQsqaUBKTNV-1">
          <mxGeometry x="370" y="60" width="60" height="30" as="geometry" />
        </mxCell>
        <mxCell id="Va8fQCkZwbm-2GWn9xar-4" value="&lt;font style=&quot;font-size: 14px;&quot;&gt;Job Description&lt;/font&gt;" style="text;html=1;strokeColor=none;fillColor=none;align=center;verticalAlign=middle;whiteSpace=wrap;rounded=0;" vertex="1" parent="WIyWlLk6GJQsqaUBKTNV-1">
          <mxGeometry x="350" y="110" width="100" height="30" as="geometry" />
        </mxCell>
        <mxCell id="Va8fQCkZwbm-2GWn9xar-5" value="Check" style="ellipse;whiteSpace=wrap;html=1;" vertex="1" parent="WIyWlLk6GJQsqaUBKTNV-1">
          <mxGeometry x="590" y="70" width="120" height="60" as="geometry" />
        </mxCell>
        <mxCell id="Va8fQCkZwbm-2GWn9xar-7" value="DISPLAY" style="ellipse;whiteSpace=wrap;html=1;" vertex="1" parent="WIyWlLk6GJQsqaUBKTNV-1">
          <mxGeometry x="340" y="200" width="120" height="60" as="geometry" />
        </mxCell>
        <mxCell id="Va8fQCkZwbm-2GWn9xar-10" value="" style="endArrow=none;html=1;rounded=0;entryX=0;entryY=1;entryDx=0;entryDy=0;exitX=1;exitY=0;exitDx=0;exitDy=0;" edge="1" parent="WIyWlLk6GJQsqaUBKTNV-1" source="Va8fQCkZwbm-2GWn9xar-7" target="Va8fQCkZwbm-2GWn9xar-5">
          <mxGeometry width="50" height="50" relative="1" as="geometry">
            <mxPoint x="390" y="280" as="sourcePoint" />
            <mxPoint x="440" y="230" as="targetPoint" />
          </mxGeometry>
        </mxCell>
        <mxCell id="Va8fQCkZwbm-2GWn9xar-12" value="" style="endArrow=none;html=1;rounded=0;exitX=0;exitY=0;exitDx=0;exitDy=0;entryX=0.75;entryY=1;entryDx=0;entryDy=0;" edge="1" parent="WIyWlLk6GJQsqaUBKTNV-1" source="Va8fQCkZwbm-2GWn9xar-7" target="WIyWlLk6GJQsqaUBKTNV-3">
          <mxGeometry width="50" height="50" relative="1" as="geometry">
            <mxPoint x="472" y="229" as="sourcePoint" />
            <mxPoint x="200" y="150" as="targetPoint" />
            <Array as="points" />
          </mxGeometry>
        </mxCell>
        <mxCell id="Va8fQCkZwbm-2GWn9xar-19" style="edgeStyle=orthogonalEdgeStyle;rounded=0;orthogonalLoop=1;jettySize=auto;html=1;exitX=1;exitY=0.5;exitDx=0;exitDy=0;entryX=0;entryY=0.5;entryDx=0;entryDy=0;" edge="1" parent="WIyWlLk6GJQsqaUBKTNV-1" source="Va8fQCkZwbm-2GWn9xar-14" target="Va8fQCkZwbm-2GWn9xar-17">
          <mxGeometry relative="1" as="geometry" />
        </mxCell>
        <mxCell id="Va8fQCkZwbm-2GWn9xar-14" value="REQUEST" style="ellipse;whiteSpace=wrap;html=1;rounded=1;glass=0;strokeWidth=1;shadow=0;" vertex="1" parent="WIyWlLk6GJQsqaUBKTNV-1">
          <mxGeometry x="92.5" y="320" width="95" height="50" as="geometry" />
        </mxCell>
        <mxCell id="Va8fQCkZwbm-2GWn9xar-16" value="&lt;font style=&quot;font-size: 14px;&quot;&gt;Sends&lt;/font&gt;" style="text;html=1;strokeColor=none;fillColor=none;align=center;verticalAlign=middle;whiteSpace=wrap;rounded=0;rotation=-90;" vertex="1" parent="WIyWlLk6GJQsqaUBKTNV-1">
          <mxGeometry x="90" y="200" width="60" height="30" as="geometry" />
        </mxCell>
        <mxCell id="Va8fQCkZwbm-2GWn9xar-18" style="edgeStyle=orthogonalEdgeStyle;rounded=0;orthogonalLoop=1;jettySize=auto;html=1;exitX=0.5;exitY=0;exitDx=0;exitDy=0;entryX=0.5;entryY=1;entryDx=0;entryDy=0;" edge="1" parent="WIyWlLk6GJQsqaUBKTNV-1" source="Va8fQCkZwbm-2GWn9xar-17" target="Va8fQCkZwbm-2GWn9xar-5">
          <mxGeometry relative="1" as="geometry" />
        </mxCell>
        <mxCell id="Va8fQCkZwbm-2GWn9xar-17" value="Employee" style="rounded=1;whiteSpace=wrap;html=1;fontSize=12;glass=0;strokeWidth=1;shadow=0;" vertex="1" parent="WIyWlLk6GJQsqaUBKTNV-1">
          <mxGeometry x="590" y="325" width="120" height="40" as="geometry" />
        </mxCell>
        <mxCell id="Va8fQCkZwbm-2GWn9xar-20" value="&lt;font style=&quot;font-size: 18px;&quot;&gt;Recieves&lt;/font&gt;" style="text;html=1;strokeColor=none;fillColor=none;align=center;verticalAlign=middle;whiteSpace=wrap;rounded=0;" vertex="1" parent="WIyWlLk6GJQsqaUBKTNV-1">
          <mxGeometry x="350" y="310" width="100" height="30" as="geometry" />
        </mxCell>
        <mxCell id="Va8fQCkZwbm-2GWn9xar-21" value="" style="endArrow=none;html=1;rounded=0;entryX=0;entryY=0;entryDx=0;entryDy=0;exitX=1;exitY=1;exitDx=0;exitDy=0;" edge="1" parent="WIyWlLk6GJQsqaUBKTNV-1" source="Va8fQCkZwbm-2GWn9xar-7" target="Va8fQCkZwbm-2GWn9xar-17">
          <mxGeometry width="50" height="50" relative="1" as="geometry">
            <mxPoint x="390" y="290" as="sourcePoint" />
            <mxPoint x="440" y="240" as="targetPoint" />
          </mxGeometry>
        </mxCell>
        <mxCell id="Va8fQCkZwbm-2GWn9xar-22" value="Accepted Request" style="text;html=1;strokeColor=none;fillColor=none;align=center;verticalAlign=middle;whiteSpace=wrap;rounded=0;rotation=25;" vertex="1" parent="WIyWlLk6GJQsqaUBKTNV-1">
          <mxGeometry x="476.66" y="262.57" width="110" height="30" as="geometry" />
        </mxCell>
        <mxCell id="Va8fQCkZwbm-2GWn9xar-25" value="&lt;font style=&quot;font-size: 14px;&quot;&gt;Location&lt;/font&gt;" style="text;html=1;strokeColor=none;fillColor=none;align=center;verticalAlign=middle;whiteSpace=wrap;rounded=0;rotation=90;" vertex="1" parent="WIyWlLk6GJQsqaUBKTNV-1">
          <mxGeometry x="640" y="215" width="60" height="30" as="geometry" />
        </mxCell>
        <mxCell id="Va8fQCkZwbm-2GWn9xar-26" value="&lt;font style=&quot;font-size: 14px;&quot;&gt;Skill&lt;/font&gt;" style="text;html=1;strokeColor=none;fillColor=none;align=center;verticalAlign=middle;whiteSpace=wrap;rounded=0;rotation=-90;" vertex="1" parent="WIyWlLk6GJQsqaUBKTNV-1">
          <mxGeometry x="580" y="215" width="100" height="30" as="geometry" />
        </mxCell>
        <mxCell id="Va8fQCkZwbm-2GWn9xar-30" value="&lt;font style=&quot;font-size: 14px;&quot;&gt;Matching Records&lt;br&gt;&lt;/font&gt;" style="text;html=1;strokeColor=none;fillColor=none;align=center;verticalAlign=middle;whiteSpace=wrap;rounded=0;rotation=-30;" vertex="1" parent="WIyWlLk6GJQsqaUBKTNV-1">
          <mxGeometry x="450" y="140" width="120" height="30" as="geometry" />
        </mxCell>
        <mxCell id="Va8fQCkZwbm-2GWn9xar-31" value="Service Request" style="text;html=1;strokeColor=none;fillColor=none;align=center;verticalAlign=middle;whiteSpace=wrap;rounded=0;rotation=25;" vertex="1" parent="WIyWlLk6GJQsqaUBKTNV-1">
          <mxGeometry x="250" y="150" width="110" height="30" as="geometry" />
        </mxCell>
        <mxCell id="Va8fQCkZwbm-2GWn9xar-38" style="edgeStyle=orthogonalEdgeStyle;rounded=0;orthogonalLoop=1;jettySize=auto;html=1;entryX=0.5;entryY=1;entryDx=0;entryDy=0;" edge="1" parent="WIyWlLk6GJQsqaUBKTNV-1" source="Va8fQCkZwbm-2GWn9xar-37" target="Va8fQCkZwbm-2GWn9xar-17">
          <mxGeometry relative="1" as="geometry" />
        </mxCell>
        <mxCell id="Va8fQCkZwbm-2GWn9xar-37" value="Mediator" style="rounded=1;whiteSpace=wrap;html=1;fontSize=12;glass=0;strokeWidth=1;shadow=0;" vertex="1" parent="WIyWlLk6GJQsqaUBKTNV-1">
          <mxGeometry x="590" y="460" width="120" height="40" as="geometry" />
        </mxCell>
        <mxCell id="Va8fQCkZwbm-2GWn9xar-39" value="&lt;font style=&quot;font-size: 14px;&quot;&gt;Lists&lt;br&gt;&lt;/font&gt;" style="text;html=1;strokeColor=none;fillColor=none;align=center;verticalAlign=middle;whiteSpace=wrap;rounded=0;rotation=-90;" vertex="1" parent="WIyWlLk6GJQsqaUBKTNV-1">
          <mxGeometry x="580" y="400" width="100" height="30" as="geometry" />
        </mxCell>
        <mxCell id="Va8fQCkZwbm-2GWn9xar-40" value="&lt;font style=&quot;font-size: 48px;&quot;&gt;LEVEL 1&lt;/font&gt;" style="text;html=1;strokeColor=none;fillColor=none;align=center;verticalAlign=middle;whiteSpace=wrap;rounded=0;" vertex="1" parent="WIyWlLk6GJQsqaUBKTNV-1">
          <mxGeometry x="90" y="470" width="240" height="30" as="geometry" />
        </mxCell>
        <mxCell id="Va8fQCkZwbm-2GWn9xar-41" value="Employer" style="rounded=1;whiteSpace=wrap;html=1;fontSize=12;glass=0;strokeWidth=1;shadow=0;" vertex="1" parent="WIyWlLk6GJQsqaUBKTNV-1">
          <mxGeometry x="50" y="645" width="120" height="50" as="geometry" />
        </mxCell>
        <mxCell id="Va8fQCkZwbm-2GWn9xar-42" value="Employee" style="rounded=1;whiteSpace=wrap;html=1;fontSize=12;glass=0;strokeWidth=1;shadow=0;" vertex="1" parent="WIyWlLk6GJQsqaUBKTNV-1">
          <mxGeometry x="610" y="650" width="120" height="40" as="geometry" />
        </mxCell>
        <mxCell id="Va8fQCkZwbm-2GWn9xar-43" value="SKILL SYNC" style="ellipse;whiteSpace=wrap;html=1;" vertex="1" parent="WIyWlLk6GJQsqaUBKTNV-1">
          <mxGeometry x="340" y="615" width="120" height="110" as="geometry" />
        </mxCell>
        <mxCell id="Va8fQCkZwbm-2GWn9xar-46" value="" style="shape=flexArrow;endArrow=classic;startArrow=classic;html=1;rounded=0;exitX=1;exitY=0.5;exitDx=0;exitDy=0;" edge="1" parent="WIyWlLk6GJQsqaUBKTNV-1" source="Va8fQCkZwbm-2GWn9xar-41" target="Va8fQCkZwbm-2GWn9xar-43">
          <mxGeometry width="100" height="100" relative="1" as="geometry">
            <mxPoint x="480" y="710" as="sourcePoint" />
            <mxPoint x="580" y="610" as="targetPoint" />
          </mxGeometry>
        </mxCell>
        <mxCell id="Va8fQCkZwbm-2GWn9xar-47" value="" style="shape=flexArrow;endArrow=classic;startArrow=classic;html=1;rounded=0;exitX=1;exitY=0.5;exitDx=0;exitDy=0;entryX=0;entryY=0.5;entryDx=0;entryDy=0;" edge="1" parent="WIyWlLk6GJQsqaUBKTNV-1" source="Va8fQCkZwbm-2GWn9xar-43" target="Va8fQCkZwbm-2GWn9xar-42">
          <mxGeometry width="100" height="100" relative="1" as="geometry">
            <mxPoint x="456.65999999999997" y="669.44" as="sourcePoint" />
            <mxPoint x="586.66" y="669.44" as="targetPoint" />
          </mxGeometry>
        </mxCell>
        <mxCell id="Va8fQCkZwbm-2GWn9xar-48" value="&lt;font style=&quot;font-size: 14px;&quot;&gt;Assigned Employee&amp;nbsp;&lt;/font&gt;" style="text;html=1;strokeColor=none;fillColor=none;align=center;verticalAlign=middle;whiteSpace=wrap;rounded=0;" vertex="1" parent="WIyWlLk6GJQsqaUBKTNV-1">
          <mxGeometry x="215" y="620" width="90" height="30" as="geometry" />
        </mxCell>
        <mxCell id="Va8fQCkZwbm-2GWn9xar-49" value="&lt;font style=&quot;font-size: 14px;&quot;&gt;Job Description&lt;/font&gt;" style="text;html=1;strokeColor=none;fillColor=none;align=center;verticalAlign=middle;whiteSpace=wrap;rounded=0;" vertex="1" parent="WIyWlLk6GJQsqaUBKTNV-1">
          <mxGeometry x="210" y="680" width="100" height="30" as="geometry" />
        </mxCell>
        <mxCell id="Va8fQCkZwbm-2GWn9xar-52" value="&lt;span style=&quot;font-size: 14px;&quot;&gt;Job Located&lt;/span&gt;" style="text;html=1;strokeColor=none;fillColor=none;align=center;verticalAlign=middle;whiteSpace=wrap;rounded=0;" vertex="1" parent="WIyWlLk6GJQsqaUBKTNV-1">
          <mxGeometry x="486.66" y="680" width="100" height="30" as="geometry" />
        </mxCell>
        <mxCell id="Va8fQCkZwbm-2GWn9xar-54" value="&lt;font style=&quot;font-size: 14px;&quot;&gt;Location&lt;/font&gt;" style="text;html=1;strokeColor=none;fillColor=none;align=center;verticalAlign=middle;whiteSpace=wrap;rounded=0;" vertex="1" parent="WIyWlLk6GJQsqaUBKTNV-1">
          <mxGeometry x="506.66" y="630" width="60" height="30" as="geometry" />
        </mxCell>
        <mxCell id="Va8fQCkZwbm-2GWn9xar-55" value="Mediator" style="rounded=1;whiteSpace=wrap;html=1;fontSize=12;glass=0;strokeWidth=1;shadow=0;" vertex="1" parent="WIyWlLk6GJQsqaUBKTNV-1">
          <mxGeometry x="610" y="790" width="120" height="40" as="geometry" />
        </mxCell>
        <mxCell id="Va8fQCkZwbm-2GWn9xar-57" value="" style="shape=flexArrow;endArrow=classic;html=1;rounded=0;exitX=0.5;exitY=0;exitDx=0;exitDy=0;entryX=0.5;entryY=1;entryDx=0;entryDy=0;" edge="1" parent="WIyWlLk6GJQsqaUBKTNV-1" source="Va8fQCkZwbm-2GWn9xar-55" target="Va8fQCkZwbm-2GWn9xar-42">
          <mxGeometry width="50" height="50" relative="1" as="geometry">
            <mxPoint x="510" y="650" as="sourcePoint" />
            <mxPoint x="560" y="600" as="targetPoint" />
          </mxGeometry>
        </mxCell>
        <mxCell id="Va8fQCkZwbm-2GWn9xar-58" value="&lt;span style=&quot;font-size: 14px;&quot;&gt;Listings&lt;/span&gt;" style="text;html=1;strokeColor=none;fillColor=none;align=center;verticalAlign=middle;whiteSpace=wrap;rounded=0;rotation=-90;" vertex="1" parent="WIyWlLk6GJQsqaUBKTNV-1">
          <mxGeometry x="590" y="740" width="100" height="30" as="geometry" />
        </mxCell>
        <mxCell id="Va8fQCkZwbm-2GWn9xar-59" value="&lt;font style=&quot;font-size: 48px;&quot;&gt;LEVEL 0&lt;/font&gt;" style="text;html=1;strokeColor=none;fillColor=none;align=center;verticalAlign=middle;whiteSpace=wrap;rounded=0;" vertex="1" parent="WIyWlLk6GJQsqaUBKTNV-1">
          <mxGeometry x="100" y="800" width="240" height="30" as="geometry" />
        </mxCell>
      </root>
    </mxGraphModel>
  </diagram>
</mxfile>
